<svg width="277" height="240" viewBox="0 0 277 240" fill="none" xmlns="http://www.w3.org/2000/svg">
<path d="M128.672 5.40919C132.87 -1.80303 143.549 -1.8031 147.748 5.40919L274.98 223.937C279.12 231.048 273.84 239.862 265.441 239.862H10.9789C2.57942 239.862 -2.69983 231.048 1.44038 223.937L128.672 5.40919Z" fill="#F9BF11"/>
<path d="M132.603 10.5541C135.075 6.31985 141.346 6.31985 143.818 10.5541L268.728 224.528C271.169 228.711 268.064 233.902 263.12 233.902H13.301C8.35689 233.902 5.25177 228.711 7.69371 224.528L132.603 10.5541Z" fill="#F11E17"/>
<path d="M137.89 46.7576L235.623 211.001H40.1571L137.89 46.7576Z" fill="#F9BF11"/>
<path d="M132.108 95.2281C134.62 91.2003 134.934 86.5526 133.364 82.8347C131.899 83.4547 128.968 85.2512 128.968 87.4825C128.968 90.271 126.456 92.4396 125.201 95.2281C123.945 98.0167 114.526 102.044 114.526 105.143C114.526 108.241 121.119 110.411 121.119 113.509C121.119 115.988 117.142 117.227 115.154 117.536C114.84 117.33 113.835 116.917 112.328 116.917C110.821 116.917 109.712 119.809 109.188 120.945C109.188 120.945 108.56 129.001 109.816 132.099C111.072 135.198 119.235 146.352 119.235 149.14C119.235 151.929 121.496 163.083 121.747 164.322C121.998 165.562 126.456 171.242 128.655 173.928C126.038 173.204 121.433 172.316 120.177 172.068C118.921 171.821 115.991 173.204 115.154 174.237C117.247 174.237 121.496 174.361 121.747 174.857C121.998 175.353 119.34 177.542 117.979 178.575C119.549 177.955 122.815 176.964 123.317 177.955C123.819 178.947 121.852 180.847 120.805 181.673C122.689 181.983 126.52 182.789 126.77 183.533C127.022 184.276 124.782 186.115 123.631 186.94L129.596 187.56L124.573 192.208H129.282L128.027 195.616L130.852 194.997L130.224 199.334L133.678 196.546L133.992 201.813L137.132 199.024V207.39L139.957 201.813L140.9 190.969C140.9 190.969 151.524 205.771 154.978 201.743C155.193 201.01 155.301 198.919 154.656 197.037C155.623 196.095 154.978 193.899 154.978 193.899L149.69 187.87C149.69 186.631 150.633 185.701 151.26 183.533C151.888 181.363 151.574 179.195 151.574 177.645C151.574 176.096 148.435 169.59 148.435 169.59C148.435 169.59 147.807 166.181 148.748 164.942C149.285 164.236 151.773 163.415 154.086 161.844C155.835 160.656 157.217 158.659 159.109 158.126C163.505 156.886 178.262 159.055 178.262 159.055C187.995 158.126 192.705 163.393 193.332 162.464C193.646 159.055 189.251 155.802 186.111 155.027C182.344 154.098 176.482 153.788 171.982 153.478C159.738 149.45 151.888 153.168 150.319 149.45C148.748 145.732 154.4 143.253 158.168 138.296C161.182 134.33 162.354 128.381 162.563 125.903C164.866 127.761 171.668 132.409 171.982 129.31C172.296 126.212 163.819 120.945 163.819 120.945C164.447 117.227 163.505 110.101 162.563 110.101C161.307 110.411 158.795 114.439 158.795 119.086C158.168 120.326 154.588 118.342 152.83 117.846C150.633 117.227 146.865 115.678 143.411 116.297C134.934 120.635 133.05 119.086 133.678 116.917C133.678 108.551 123.945 108.551 123.945 104.214C123.945 102.231 129.387 97.3973 132.108 95.2281Z" fill="black"/>
<path d="M144.665 138.297C142.656 132.844 137.13 128.692 137.13 127.143C137.13 126.283 141.648 123.217 146.863 122.495C151.047 121.915 155.791 123.492 158.167 124.044C158.481 132.41 146.675 143.751 144.665 138.297Z" fill="#F9BF11"/>
<path d="M49.339 212.413H58.2544V215.412H53.8982V220.468H57.694V223.566H53.8982V232.489H49.339V212.413ZM64.0698 212.413H69.2662L73.1122 232.489H68.9096L68.2215 228.251H65.1906L64.4774 232.489H60.1722L64.0698 212.413ZM67.7888 225.599L66.6932 217.767L65.5982 225.599H67.7888ZM76.7235 212.413H81.2834V229.49H86.0213V232.489H76.7235V212.413ZM89.5455 212.413H94.1054V229.49H98.8433V232.489H89.5455V212.413ZM102.393 212.413H106.953V232.489H102.393V212.413ZM111.558 212.413H114.767L118.996 222.079V212.413H122.765V232.489H119.683L115.455 222.079V232.489H111.558V212.413ZM132.739 232.787C130.701 232.787 129.249 232.184 128.383 230.977C127.517 229.771 127.084 228.061 127.084 225.847V219.105C127.084 216.841 127.551 215.114 128.485 213.925C129.436 212.735 131.032 212.14 133.274 212.14C135.431 212.14 136.976 212.653 137.91 213.677C138.844 214.701 139.311 216.147 139.311 218.015V219.303H134.853V217.668C134.853 216.874 134.759 216.28 134.573 215.883C134.386 215.47 133.97 215.263 133.325 215.263C132.662 215.263 132.23 215.486 132.026 215.933C131.839 216.379 131.745 216.998 131.745 217.791V227.086C131.745 227.879 131.865 228.507 132.102 228.97C132.357 229.416 132.807 229.639 133.452 229.639C134.641 229.639 135.235 228.771 135.235 227.036V224.682H133.376V222.079H139.336V232.489H136.33L136.076 230.828C135.431 232.134 134.318 232.787 132.739 232.787ZM152.044 212.413H156.935L159.202 224.087L161.647 212.413H166.36L166.716 232.489H163.481L163.099 219.13L160.705 232.489H157.827L155.279 219.03L154.974 232.489H151.687L152.044 212.413ZM177.137 232.787C174.912 232.787 173.325 232.233 172.374 231.126C171.423 230.003 170.948 228.35 170.948 226.169V218.708C170.948 216.527 171.423 214.892 172.374 213.801C173.325 212.694 174.912 212.14 177.137 212.14C179.379 212.14 180.975 212.694 181.926 213.801C182.894 214.908 183.378 216.544 183.378 218.708V226.169C183.378 228.35 182.894 230.003 181.926 231.126C180.975 232.233 179.379 232.787 177.137 232.787ZM177.137 229.639C177.783 229.639 178.207 229.432 178.411 229.019C178.615 228.589 178.717 228.012 178.717 227.284V217.618C178.717 216.874 178.615 216.296 178.411 215.883C178.207 215.47 177.783 215.263 177.137 215.263C176.526 215.263 176.118 215.478 175.915 215.907C175.711 216.321 175.609 216.891 175.609 217.618V227.284C175.609 228.012 175.702 228.589 175.889 229.019C176.076 229.432 176.492 229.639 177.137 229.639ZM193.591 232.787C191.366 232.787 189.779 232.233 188.828 231.126C187.876 230.003 187.401 228.35 187.401 226.169V218.708C187.401 216.527 187.876 214.892 188.828 213.801C189.779 212.694 191.366 212.14 193.591 212.14C195.833 212.14 197.429 212.694 198.38 213.801C199.348 214.908 199.832 216.544 199.832 218.708V226.169C199.832 228.35 199.348 230.003 198.38 231.126C197.429 232.233 195.833 232.787 193.591 232.787ZM193.591 229.639C194.236 229.639 194.661 229.432 194.865 229.019C195.069 228.589 195.171 228.012 195.171 227.284V217.618C195.171 216.874 195.069 216.296 194.865 215.883C194.661 215.47 194.236 215.263 193.591 215.263C192.98 215.263 192.572 215.478 192.369 215.907C192.165 216.321 192.063 216.891 192.063 217.618V227.284C192.063 228.012 192.156 228.589 192.343 229.019C192.53 229.432 192.946 229.639 193.591 229.639ZM209.612 232.787C207.642 232.787 206.173 232.283 205.205 231.274C204.254 230.25 203.744 228.631 203.676 226.416L207.574 225.847C207.591 227.119 207.744 228.036 208.033 228.598C208.338 229.143 208.788 229.416 209.382 229.416C210.146 229.416 210.529 228.928 210.529 227.953C210.529 227.177 210.342 226.507 209.968 225.946C209.612 225.384 209.042 224.781 208.261 224.136L206.478 222.625C205.596 221.897 204.907 221.129 204.415 220.319C203.939 219.493 203.702 218.518 203.702 217.395C203.702 215.709 204.212 214.412 205.231 213.504C206.266 212.595 207.684 212.14 209.484 212.14C211.437 212.14 212.761 212.694 213.458 213.801C214.171 214.908 214.553 216.254 214.604 217.841L210.682 218.312C210.647 217.271 210.546 216.527 210.376 216.081C210.223 215.619 209.875 215.387 209.331 215.387C208.94 215.387 208.635 215.552 208.414 215.883C208.21 216.197 208.109 216.552 208.109 216.948C208.109 217.626 208.261 218.196 208.567 218.659C208.89 219.121 209.399 219.65 210.095 220.245L211.802 221.707C212.821 222.55 213.611 223.442 214.171 224.384C214.731 225.326 215.012 226.442 215.012 227.73C215.012 228.672 214.782 229.531 214.324 230.308C213.882 231.068 213.254 231.671 212.439 232.117C211.624 232.563 210.682 232.787 209.612 232.787ZM218.748 212.413H228.02V215.437H223.308V220.418H226.899V223.492H223.308V229.49H228.071V232.489H218.748V212.413Z" fill="white"/>
</svg>
